<svg width="50" height="50" xmlns="http://www.w3.org/2000/svg" xmlns:xlink="http://www.w3.org/1999/xlink" xml:space="preserve" overflow="hidden"><g transform="translate(-14 -197)"><path d="M39 202.208C28.0625 202.208 19.2083 211.062 19.2083 222 19.2083 232.938 28.0625 241.792 39 241.792 49.9375 241.792 58.7917 232.938 58.7917 222 58.7917 211.062 49.9375 202.208 39 202.208ZM37.9583 207.417C39.4167 207.417 40.5625 208.562 40.5625 210.021 40.5625 211.479 39.4167 212.625 37.9583 212.625 36.5 212.625 35.3542 211.479 35.3542 210.021 35.3542 208.562 36.5 207.417 37.9583 207.417ZM44.2083 236.583 33.7917 236.583 33.7917 233.458 37.4375 233.458 37.4375 217.833 34.3125 217.833 34.3125 214.708 40.5625 214.708 40.5625 217.833 40.5625 233.458 44.2083 233.458 44.2083 236.583Z" fill="#FFFFFF"/></g></svg>