<svg width="50" height="51" xmlns="http://www.w3.org/2000/svg" xmlns:xlink="http://www.w3.org/1999/xlink" xml:space="preserve" overflow="hidden"><g transform="translate(-14 -73)"><path d="M35.4167 15.7292C34.1667 15.7292 33.125 14.6875 33.1771 13.3854 33.1771 12.1354 34.2187 11.0937 35.4687 11.0937 36.7188 11.0937 37.7604 12.1354 37.7604 13.3854 37.7604 14.0104 37.5 14.5833 37.0833 15 36.6146 15.4688 36.0417 15.7292 35.4167 15.7292ZM33.1771 8.48958C32.0312 8.90625 31.1458 9.79167 30.5729 10.8333 29.8437 12.2396 29.7396 13.8542 30.3125 15.3125L32.8125 20.7292 34.4792 24.1667C34.6354 24.5312 35 24.7396 35.4167 24.7396 35.8333 24.7396 36.1979 24.5312 36.3542 24.1667L38.0208 20.7292 40.5208 15.3646C40.7812 14.7396 40.8854 14.0625 40.8854 13.3854 40.8854 9.73958 37.1354 6.97917 33.1771 8.48958Z" fill="#FFFFFF" transform="matrix(1 0 0 1.02 14 73)"/><path d="M23.9583 37.9167 15.625 33.75 15.625 16.7708 23.9583 20.9375 23.9583 37.9167ZM13.5417 33.75 7.29167 36.875 7.29167 19.8958 13.5417 16.7708 13.5417 33.75ZM42.3958 16.25 42.3958 16.25 41.0938 19.0625 42.7083 19.8958 42.7083 36.875 36.4583 33.75 36.4583 26.8229 34.375 26.8229 34.375 33.75 26.0417 37.9167 26.0417 20.9375 29.7396 19.0625 28.4375 16.25 25 17.9688 14.5833 12.7604 4.16667 17.9688 4.16667 41.9271 14.5833 36.7188 25 41.9271 35.4167 36.7188 45.8333 41.9271 45.8333 17.9688 42.3958 16.25Z" fill="#FFFFFF" transform="matrix(1 0 0 1.02 14 73)"/></g></svg>