<svg width="50" height="51" xmlns="http://www.w3.org/2000/svg" xmlns:xlink="http://www.w3.org/1999/xlink" xml:space="preserve" overflow="hidden"><g transform="translate(-14 -252)"><path d="M38.75 38.1771 29.375 34.9479 29.3229 34.9479 25.5729 33.6458 43.125 10.4688 38.75 38.1771ZM27.0312 36.4062 23.5937 39.8438 24.5312 35.5729 27.0312 36.4062 27.0312 36.4062ZM22.8646 33.75C22.7604 33.8542 22.7083 34.0104 22.6562 34.1667L22.5 34.8438 21.4583 39.5833 18.9583 32.2917 38.4375 13.5417 23.4896 32.9688 22.8646 33.75ZM7.8125 27.6042 38.3333 11.3542 17.4479 30.8854 7.8125 27.6042ZM45.4167 5.9375C45.1042 5.67708 44.6354 5.67708 44.2708 5.88542L4.73958 26.875C4.375 27.0833 4.16667 27.4479 4.16667 27.8646 4.16667 28.2812 4.47917 28.6458 4.84375 28.75L15.6771 32.4479 17.0312 32.9167 17.3437 33.8021 20.5729 43.4896 20.5729 43.5417 20.5729 43.5937C20.6771 43.9062 20.9896 44.1667 21.3542 44.2708 21.7188 44.375 22.0833 44.2708 22.3438 44.0104L22.3958 43.9583 22.7083 43.6458 29.2708 37.1875 39.2708 40.625C39.5833 40.7292 39.8958 40.6771 40.1562 40.5208 40.4167 40.3646 40.625 40.1042 40.6771 39.7917L45.8854 6.97917C45.9375 6.51042 45.7292 6.14583 45.4167 5.9375Z" fill="#FFFFFF" transform="matrix(1 0 0 1.02 14 252)"/></g></svg>